<svg version="1.2" xmlns="http://www.w3.org/2000/svg" xmlns:xlink="http://www.w3.org/1999/xlink" overflow="visible" preserveAspectRatio="none" viewBox="0 0 17.75 20" height="18" width="15"><g transform="translate(1, 1)"><g transform="translate(-21.844 -21.438)" id="administrative_icon_1611271383321"><path fill="#6a6d6d" transform="translate(21.844 21.438)" d="M7.875,9a4.5,4.5,0,1,0-4.5-4.5A4.5,4.5,0,0,0,7.875,9Zm3.368,1.146-1.68,6.729L8.438,12.094l1.125-1.969H6.188l1.125,1.969L6.188,16.875l-1.68-6.729A4.717,4.717,0,0,0,0,14.85v1.462A1.688,1.688,0,0,0,1.688,18H14.063a1.688,1.688,0,0,0,1.688-1.687V14.85a4.717,4.717,0,0,0-4.507-4.7Z" id="Icon_awesome-user-tie_1611271383321" vector-effect="non-scaling-stroke" style="fill: rgb(97, 97, 97);"/></g></g></svg>