<svg version="1.2" xmlns="http://www.w3.org/2000/svg" xmlns:xlink="http://www.w3.org/1999/xlink" overflow="visible" preserveAspectRatio="none" viewBox="0 0 20 16.399999618530273" height="14" width="18"><g transform="translate(1, 1)"><g transform="translate(-21.2 -23)" id="proctoring_icon_1611271381066"><path fill="#6a6d6d" transform="translate(21.2 23)" d="M5.85,9.9a.643.643,0,0,0-.2.031,3.71,3.71,0,0,1-1.151.194,3.713,3.713,0,0,1-1.152-.194.642.642,0,0,0-.2-.031A3.15,3.15,0,0,0,0,13.067,1.347,1.347,0,0,0,1.35,14.4h6.3A1.347,1.347,0,0,0,9,13.067,3.15,3.15,0,0,0,5.85,9.9ZM4.5,9A2.7,2.7,0,1,0,1.8,6.3,2.7,2.7,0,0,0,4.5,9ZM16.65,0H5.85A1.374,1.374,0,0,0,4.5,1.395V2.7a3.559,3.559,0,0,1,1.8.5V1.8h9.9V9.9H14.4V8.1H10.8V9.9H8.656a3.585,3.585,0,0,1,1.116,1.8H16.65A1.374,1.374,0,0,0,18,10.305V1.395A1.374,1.374,0,0,0,16.65,0Z" id="Icon_awesome-chalkboard-teacher_1611271381066" vector-effect="non-scaling-stroke" style="fill: rgb(97, 97, 97);"/></g></g></svg>