<svg version="1.2" xmlns="http://www.w3.org/2000/svg" xmlns:xlink="http://www.w3.org/1999/xlink" overflow="visible" preserveAspectRatio="none" viewBox="0 0 20 20" height="18" width="18"><g transform="translate(1, 1)"><g transform="translate(-131 -3137)" id="reporting_icon_1611271379949"><path fill="#6a6d6d" transform="translate(128 3134)" d="M4.8,6.6H3V19.2A1.805,1.805,0,0,0,4.8,21H17.4V19.2H4.8ZM19.2,3H8.4A1.805,1.805,0,0,0,6.6,4.8V15.6a1.805,1.805,0,0,0,1.8,1.8H19.2A1.805,1.805,0,0,0,21,15.6V4.8A1.805,1.805,0,0,0,19.2,3Zm-.9,8.1h-9V9.3h9Zm-3.6,3.6H9.3V12.9h5.4Zm3.6-7.2h-9V5.7h9Z" id="Icon_material-library-books_1611271379949" vector-effect="non-scaling-stroke" style="fill: rgb(97, 97, 97);"/></g></g></svg>