<svg version="1.2" xmlns="http://www.w3.org/2000/svg" xmlns:xlink="http://www.w3.org/1999/xlink" overflow="visible" preserveAspectRatio="none" viewBox="0 0 18.200000762939453 20" height="18" width="16" id="test_assignemnt_icon_1611271382111"><g transform="translate(1, 1)"><path fill="#6a6d6d" transform="translate(-4.5 -1.5)" d="M18.9,3.3H15.138a2.689,2.689,0,0,0-5.076,0H6.3A1.805,1.805,0,0,0,4.5,5.1V17.7a1.805,1.805,0,0,0,1.8,1.8H18.9a1.805,1.805,0,0,0,1.8-1.8V5.1A1.805,1.805,0,0,0,18.9,3.3Zm-6.3,0a.9.9,0,1,1-.9.9A.9.9,0,0,1,12.6,3.3Zm0,3.6A2.7,2.7,0,1,1,9.9,9.6,2.7,2.7,0,0,1,12.6,6.9ZM18,17.7H7.2V16.44c0-1.8,3.6-2.79,5.4-2.79s5.4.99,5.4,2.79Z" id="Icon_material-assignment-ind_1611271382111" vector-effect="non-scaling-stroke" style="fill: rgb(97, 97, 97);"/></g></svg>